<?xml version="1.0" encoding="UTF-8" standalone="no"?>
<svg
   version="1.1"
   width="220"
   height="220"
   style="clip-rule:evenodd;fill-rule:evenodd;image-rendering:optimizeQuality;shape-rendering:geometricPrecision;text-rendering:geometricPrecision"
   id="svg62"
   sodipodi:docname="favicon.svg"
   inkscape:version="1.4.2 (f4327f4, 2025-05-13)"
   inkscape:export-filename="favicon-plain.svg"
   inkscape:export-xdpi="300"
   inkscape:export-ydpi="300"
   xmlns:inkscape="http://www.inkscape.org/namespaces/inkscape"
   xmlns:sodipodi="http://sodipodi.sourceforge.net/DTD/sodipodi-0.dtd"
   xmlns="http://www.w3.org/2000/svg"
   xmlns:svg="http://www.w3.org/2000/svg">
  <defs
     id="defs62" />
  <sodipodi:namedview
     id="namedview62"
     pagecolor="#ffffff"
     bordercolor="#000000"
     borderopacity="0.25"
     inkscape:showpageshadow="2"
     inkscape:pageopacity="0.0"
     inkscape:pagecheckerboard="0"
     inkscape:deskcolor="#d1d1d1"
     inkscape:zoom="3.8687783"
     inkscape:cx="111.53392"
     inkscape:cy="131.17836"
     inkscape:window-width="1920"
     inkscape:window-height="1057"
     inkscape:window-x="-8"
     inkscape:window-y="-8"
     inkscape:window-maximized="1"
     inkscape:current-layer="svg62" />
  <g
     id="g1"
     transform="matrix(1.0152629,0,0,1.0117647,-3.3881088,-1.298679)">
    <path
       style="opacity:1;stroke-width:0.990695"
       fill="#f89a37"
       d="m 1.8263158,0.53391813 c 73.3855422,0 146.7714842,0 220.1567242,0 0,73.23590087 0,146.47140187 0,219.70760187 -73.38524,0 -146.771182,0 -220.1567242,0 0,-73.2362 0,-146.471701 0,-219.70760187 z"
       id="path1" />
  </g>
  <g
     id="g2">
    <path
       style="opacity:1"
       fill="#6f3601"
       d="m 105.5,10.5 c -1.439,1.8603 -3.105,3.527 -5,5 -38.3501,6.1732 -65.1834,27.1732 -80.5,63 -0.4935,1.6341 -0.6602,3.3008 -0.5,5 -2.7951,5.9499 -4.4617,12.2833 -5,19 -0.9363,1.474 -2.2697,2.474 -4,3 1.3306,-32.1529 14.9972,-57.9863 41,-77.5 16.4378,-11.4259 34.4378,-17.2593 54,-17.5 z"
       id="path2" />
  </g>
  <g
     id="g3">
    <path
       style="opacity:1"
       fill="#6f3501"
       d="m 114.5,9.5 c 36.872,3.0099 64.705,20.3432 83.5,52 6.315,12.1108 10.482,24.7774 12.5,38 0.646,6.369 -1.021,7.369 -5,3 -6.177,-39.68 -27.844,-67.18 -65,-82.5 -6.535,-2.1341 -13.202,-3.6341 -20,-4.5 -2.878,-1.0622 -4.878,-3.0622 -6,-6 z"
       id="path3" />
  </g>
  <g
     id="g4">
    <path
       style="opacity:1"
       fill="#783d03"
       d="m 106.5,7.5 c -46.2282,4.8453 -77.7282,28.8453 -94.5,72 -2.46892,9.1779 -3.96892,18.5112 -4.5,28 -1.84351,-1.779 -2.51017,-4.112 -2,-7 6.4493,-45.6234 31.4493,-76.1234 75,-91.5 9.1955,-2.68274 18.5288,-3.51607 28,-2.5 -0.457,0.79755 -1.124,1.13088 -2,1 z"
       id="path4" />
  </g>
  <g
     id="g5">
    <path
       style="opacity:1"
       fill="#6e3501"
       d="m 142.5,43.5 c 0.667,0 1,0.3333 1,1 4.333,4 8.667,8 13,12 -1.32,17.2814 -1.986,34.7814 -2,52.5 0.014,17.719 0.68,35.219 2,52.5 -0.936,1.474 -2.27,2.474 -4,3 0.332,-36.837 -0.002,-73.5038 -1,-110 -3.267,-1.2563 -6.601,-2.423 -10,-3.5 -7.437,-5.1366 -14.604,-10.6366 -21.5,-16.5 -0.717,0.5442 -1.217,1.2109 -1.5,2 -0.838,-0.3417 -1.172,-1.0084 -1,-2 -1.449,-3.9724 -3.949,-7.3057 -7.5,-10 -3.551,2.6943 -6.051,6.0276 -7.5,10 0.172,0.9916 -0.162,1.6583 -1,2 -0.502,-1.5847 -1.5024,-2.0847 -3,-1.5 -5.8869,5.0924 -11.8869,9.9258 -18,14.5 -4.1672,1.2776 -8.1672,2.9443 -12,5 -0.6667,36.6667 -1.3333,73.333 -2,110 -1.3333,-0.667 -2.3333,-1.667 -3,-3 1.3198,-17.281 1.9864,-34.781 2,-52.5 -0.0136,-17.7186 -0.6802,-35.2186 -2,-52.5 3.7366,-4.3688 8.0699,-8.0355 13,-11 1,-0.3333 1.6667,-1 2,-2 10.9379,-8.7672 21.4379,-18.1005 31.5,-28 10.598,9.6991 21.431,19.0324 32.5,28 z"
       id="path5" />
  </g>
  <g
     id="g6">
    <path
       style="opacity:1"
       fill="#d07a26"
       d="m 120.5,15.5 c 6.798,0.8659 13.465,2.3659 20,4.5 37.156,15.32 58.823,42.82 65,82.5 -0.667,-0.333 -1.333,-0.667 -2,-1 -6.309,-39.151 -27.976,-65.9843 -65,-80.5 -4.868,-1.0401 -9.701,-2.2068 -14.5,-3.5 -1.07,0.028 -1.903,0.3614 -2.5,1 -0.904,-0.709 -1.237,-1.709 -1,-3 z"
       id="path6" />
  </g>
  <g
     id="g7">
    <path
       style="opacity:1"
       fill="#f79936"
       d="m 76.5,45.5 c -4.9301,2.9645 -9.2634,6.6312 -13,11 -7.1762,6.0377 -13.1762,13.0377 -18,21 -4.8413,-2.9212 -9.8413,-5.5879 -15,-8 -1.0827,-0.865 -1.2494,-1.865 -0.5,-3 9.3294,-14.8291 21.4961,-26.8291 36.5,-36 4.0849,4.5043 7.4182,9.5043 10,15 z"
       id="path7" />
  </g>
  <g
     id="g8">
    <path
       style="opacity:1"
       fill="#f79936"
       d="m 156.5,56.5 c -4.333,-4 -8.667,-8 -13,-12 2.92,-4.9269 6.254,-9.5935 10,-14 15.537,9.3699 27.87,21.8699 37,37.5 -5.227,3.5335 -10.727,6.7002 -16.5,9.5 -4.899,-7.8098 -10.732,-14.8098 -17.5,-21 z"
       id="path8" />
  </g>
  <g
     id="g9">
    <path
       style="opacity:1"
       fill="#f49735"
       d="m 101.5,36.5 c 1.473,3.0606 3.139,6.0606 5,9 -1.102,0.6757 -2.102,1.3423 -3,2 -6.8106,0.1353 -13.4773,1.1353 -20,3 -1.291,0.2373 -2.291,-0.096 -3,-1 6.1131,-4.5742 12.1131,-9.4076 18,-14.5 1.4976,-0.5847 2.498,-0.0847 3,1.5 z"
       id="path9" />
  </g>
  <g
     id="g10">
    <path
       style="opacity:1"
       fill="#95510d"
       d="m 102.5,34.5 c 2.185,3.7132 3.852,7.7132 5,12 2.559,-0.3016 4.893,0.0318 7,1 -3.667,0 -7.333,0 -11,0 0.898,-0.6577 1.898,-1.3243 3,-2 -1.861,-2.9394 -3.527,-5.9394 -5,-9 0.838,-0.3417 1.172,-1.0084 1,-2 z"
       id="path10" />
  </g>
  <g
     id="g11">
    <path
       style="opacity:1"
       fill="#d88129"
       d="m 112.5,7.5 c 47.04,4.55 78.873,28.8834 95.5,73 1.746,5.8941 2.912,11.8941 3.5,18 -0.667,0 -1,0.3333 -1,1 -2.018,-13.2226 -6.185,-25.8892 -12.5,-38 -18.795,-31.6568 -46.628,-48.9901 -83.5,-52 -0.667,-0.66667 -1.333,-1.33333 -2,-2 z"
       id="path11" />
  </g>
  <g
     id="g12">
    <path
       style="opacity:1"
       fill="#d57f28"
       d="m 106.5,7.5 c 0.237,1.29105 -0.096,2.29105 -1,3 -19.5622,0.2407 -37.5622,6.0741 -54,17.5 -26.0028,19.5137 -39.6694,45.3471 -41,77.5 -0.79049,0.901 -1.79049,1.568 -3,2 0.53108,-9.4888 2.03108,-18.8221 4.5,-28 16.7718,-43.1547 48.2718,-67.1547 94.5,-72 z"
       id="path12" />
  </g>
  <g
     id="g13">
    <path
       style="opacity:1"
       fill="#733802"
       d="m 103.5,47.5 c 3.667,0 7.333,0 11,0 12.154,0.6085 23.82,3.2751 35,8 0.333,36.0062 0,72.006 -1,108 -20.775,10.993 -42.441,12.993 -65,6 -4.2229,-1.682 -8.3895,-3.682 -12.5,-6 -0.5,-35.998 -0.6667,-71.9985 -0.5,-108 4.5108,-1.4307 8.8441,-3.0974 13,-5 6.5227,-1.8647 13.1894,-2.8647 20,-3 z"
       id="path13" />
  </g>
  <g
     id="g14">
    <path
       style="opacity:1"
       fill="#d47e28"
       d="m 100.5,15.5 c -0.432,1.2095 -1.0987,2.2095 -2,3 -23.2831,2.0606 -42.7831,12.0606 -58.5,30 -8.905,10.4801 -15.7384,22.1468 -20.5,35 -0.1602,-1.6992 0.0065,-3.3659 0.5,-5 15.3166,-35.8268 42.1499,-56.8268 80.5,-63 z"
       id="path14" />
  </g>
  <g
     id="g15">
    <path
       style="opacity:1"
       fill="#f89a37"
       d="m 147.5,61.5 c 0.326,32.7399 -0.008,65.407 -1,98 -7.182,2.799 -14.515,5.299 -22,7.5 -18.231,3.519 -35.2306,0.685 -51,-8.5 -0.3257,-32.74 0.0076,-65.4066 1,-98 15.3332,-7.6542 31.666,-10.1542 49,-7.5 8.59,1.4753 16.59,4.3086 24,8.5 z"
       id="path15" />
  </g>
  <g
     id="g16">
    <path
       style="opacity:1"
       fill="#e78b2f"
       d="m 80.5,49.5 c 0.709,0.904 1.709,1.2373 3,1 -4.1559,1.9026 -8.4892,3.5693 -13,5 -0.1667,36.0015 0,72.002 0.5,108 4.1105,2.318 8.2771,4.318 12.5,6 -0.9916,-0.172 -1.6583,0.162 -2,1 -4.1912,-1.284 -8.1912,-2.95 -12,-5 -0.9933,-36.927 -1.3266,-73.9272 -1,-111 3.8328,-2.0557 7.8328,-3.7224 12,-5 z"
       id="path16" />
  </g>
  <g
     id="g17">
    <path
       style="opacity:1"
       fill="#9b5611"
       d="m 68.5,54.5 c -0.3266,37.0728 0.0067,74.073 1,111 -0.6667,0 -1,0.333 -1,1 -1,-0.333 -1.6667,-1 -2,-2 0.6667,-36.667 1.3333,-73.3333 2,-110 z"
       id="path17" />
  </g>
  <g
     id="g18">
    <path
       style="opacity:1"
       fill="#e68831"
       d="m 74.5,60.5 c -0.9924,32.5934 -1.3257,65.26 -1,98 -0.6666,-16.163 -0.9999,-32.497 -1,-49 5e-4,-16.6806 0.6672,-33.0139 2,-49 z"
       id="path18" />
  </g>
  <g
     id="g19">
    <path
       style="opacity:1"
       fill="#8e4a0b"
       d="m 147.5,61.5 c 0.667,16.1632 1,32.4966 1,49 -0.001,16.681 -0.667,33.014 -2,49 0.992,-32.593 1.326,-65.2601 1,-98 z"
       id="path19" />
  </g>
  <g
     id="g20">
    <path
       style="opacity:1"
       fill="#793d03"
       d="m 214.5,100.5 c 0.164,2.687 -0.003,5.354 -0.5,8 -2.286,-2.865 -3.12,-6.198 -2.5,-10 -0.588,-6.1059 -1.754,-12.1059 -3.5,-18 -16.627,-44.1166 -48.46,-68.45 -95.5,-73 -0.789,-0.28281 -1.456,-0.78281 -2,-1.5 31.405,0.28643 57.572,12.1198 78.5,35.5 14.487,16.9834 22.987,36.6501 25.5,59 z"
       id="path20" />
  </g>
  <g
     id="g21">
    <path
       style="opacity:1"
       fill="#6b3300"
       d="m 44.5,118.5 c 0,-5.667 0,-11.333 0,-17 2.0238,-14.7139 7.8571,-27.7139 17.5,-39 0.6667,30.6667 0.6667,61.333 0,92 -8.7862,-10.572 -14.6195,-22.572 -17.5,-36 z"
       id="path21" />
  </g>
  <g
     id="g22">
    <path
       style="opacity:1"
       fill="#6e3501"
       d="m 113.5,137.5 c -0.968,2.107 -1.302,4.441 -1,7 -2,0 -4,0 -6,0 0,-2.333 0,-4.667 0,-7 -7.6947,-0.495 -12.6947,-4.329 -15,-11.5 0.3485,-5.09 3.0152,-6.757 8,-5 1.534,2.966 2.7,6.133 3.5,9.5 1.011,0.837 2.178,1.17 3.5,1 0.166,-7.341 0,-14.674 -0.5,-22 -4.537,-2.27 -8.5366,-5.27 -12,-9 -3.7235,-9.1057 -1.5569,-16.2723 6.5,-21.5 1.845,-1.128 3.845,-1.628 6,-1.5 0,-2.3333 0,-4.6667 0,-7 2,0 4,0 6,0 -0.162,2.0273 0.005,4.0273 0.5,6 4.656,0.6614 8.656,2.6614 12,6 3.371,6.6393 1.537,9.806 -5.5,9.5 -1.535,-2.6239 -2.702,-5.4572 -3.5,-8.5 -0.689,-0.8567 -1.522,-1.5233 -2.5,-2 -1.333,6.6667 -1.333,13.3333 0,20 5.932,2.212 11.099,5.545 15.5,10 3.772,14.051 -1.395,22.718 -15.5,26 z"
       id="path22" />
  </g>
  <g
     id="g23">
    <path
       style="opacity:1"
       fill="#793d03"
       d="m 121.5,18.5 c 0.597,-0.6386 1.43,-0.972 2.5,-1 4.799,1.2932 9.632,2.4599 14.5,3.5 37.024,14.5157 58.691,41.349 65,80.5 -2.036,-1.7057 -3.036,-4.039 -3,-7 0.09,-2.6522 -0.576,-4.9855 -2,-7 -1.619,-5.3054 -3.619,-10.4721 -6,-15.5 -1.333,-0.6667 -2.667,-0.6667 -4,0 -4.703,2.6717 -9.37,5.3384 -14,8 1.227,5.0179 3.227,9.6845 6,14 9.019,4.2109 17.352,9.378 25,15.5 -8.006,5.338 -16.339,10.172 -25,14.5 -3.426,4.284 -5.259,9.118 -5.5,14.5 4.212,1.856 8.379,3.856 12.5,6 2.99,-3.971 5.49,-8.304 7.5,-13 -8.524,28.806 -26.357,49.973 -53.5,63.5 -6.374,3.238 -13.041,5.238 -20,6 9.654,-4.11 19.154,-8.61 28.5,-13.5 -1.526,-4.73 -3.36,-9.397 -5.5,-14 -0.172,-0.992 0.162,-1.658 1,-2 1.691,5.047 4.191,9.713 7.5,14 14.318,-10.166 25.484,-22.999 33.5,-38.5 -4.273,-2.474 -8.606,-4.974 -13,-7.5 -4.192,8.519 -9.858,15.852 -17,22 -1.32,-17.281 -1.986,-34.781 -2,-52.5 0.014,-17.7186 0.68,-35.2186 2,-52.5 6.768,6.1902 12.601,13.1902 17.5,21 5.773,-2.7998 11.273,-5.9665 16.5,-9.5 -9.13,-15.6301 -21.463,-28.1301 -37,-37.5 -3.746,4.4065 -7.08,9.0731 -10,14 0,-0.6667 -0.333,-1 -1,-1 3.039,-4.392 5.705,-9.0587 8,-14 -2.505,-1.7533 -5.171,-3.2533 -8,-4.5 -7.053,-2.0737 -14.053,-4.2404 -21,-6.5 z"
       id="path23" />
  </g>
  <g
     id="g24">
    <path
       style="opacity:1"
       fill="#6b3300"
       d="m 157.5,153.5 c 0,-28.667 0,-57.3333 0,-86 -0.16,-1.6992 0.006,-3.3659 0.5,-5 18.202,21.0177 22.535,44.684 13,71 -3.541,7.53 -7.874,14.53 -13,21 -0.399,-0.228 -0.565,-0.562 -0.5,-1 z"
       id="path24" />
  </g>
  <g
     id="g25">
    <path
       style="opacity:1"
       fill="#e78c30"
       d="m 43.5,124.5 c 0,-1 0,-2 0,-3 -0.2373,-1.291 0.096,-2.291 1,-3 2.8805,13.428 8.7138,25.428 17.5,36 0.6667,-30.667 0.6667,-61.3333 0,-92 -9.6429,11.2861 -15.4762,24.2861 -17.5,39 -0.6667,5.333 -1.3333,10.667 -2,16 0,-7.333 0,-14.667 0,-22 3.6024,-14.1985 10.6024,-26.5319 21,-37 1.1666,33.6617 1.3332,67.328 0.5,101 -9.9665,-9.947 -16.7998,-21.614 -20.5,-35 z"
       id="path25" />
  </g>
  <g
     id="g26">
    <path
       style="opacity:1"
       fill="#f49735"
       d="m 104.5,82.5 c 1.312,2.2432 1.978,4.9098 2,8 1.189,7.5902 -0.311,8.9235 -4.5,4 -1.112,-4.4814 -0.279,-8.4814 2.5,-12 z"
       id="path26" />
  </g>
  <g
     id="g27">
    <path
       style="opacity:1"
       fill="#c57321"
       d="m 19.5,83.5 c -0.8376,5.0194 -1.8376,10.0194 -3,15 0.0195,1.2261 0.3529,2.226 1,3 -0.709,0.904 -1.709,1.237 -3,1 0.5383,-6.7167 2.2049,-13.0501 5,-19 z"
       id="path27" />
  </g>
  <g
     id="g28">
    <path
       style="opacity:1"
       fill="#733902"
       d="m 41.5,92.5 c 0.904,0.709 1.2373,1.709 1,3 0,7.333 0,14.667 0,22 -0.2678,1.599 0.0655,2.932 1,4 0,1 0,2 0,3 0.2678,1.599 -0.0655,2.932 -1,4 -0.5283,-1.221 -1.195,-2.387 -2,-3.5 -9.2609,-4.935 -18.2609,-10.268 -27,-16 9.1963,-5.764 18.5296,-11.2636 28,-16.5 z"
       id="path28" />
  </g>
  <g
     id="g29">
    <path
       style="opacity:1"
       fill="#c0701f"
       d="m 198.5,87.5 c 1.424,2.0145 2.09,4.3478 2,7 -1.424,-2.0145 -2.09,-4.3478 -2,-7 z"
       id="path29" />
  </g>
  <g
     id="g30">
    <path
       style="opacity:1"
       fill="#f59836"
       d="m 38.5,99.5 c 1.3333,6.667 1.3333,13.333 0,20 -5.7612,-3.244 -11.4279,-6.744 -17,-10.5 5.3982,-3.698 11.0648,-6.864 17,-9.5 z"
       id="path30" />
  </g>
  <g
     id="g31">
    <path
       style="opacity:1"
       fill="#f69836"
       d="m 181.5,99.5 c 5.682,3.067 11.348,6.234 17,9.5 -5.648,4.158 -11.648,7.658 -18,10.5 -0.324,-6.854 0.009,-13.521 1,-20 z"
       id="path31" />
  </g>
  <g
     id="g32">
    <path
       style="opacity:1"
       fill="#c37221"
       d="m 5.5,100.5 c -0.51017,2.888 0.15649,5.221 2,7 -0.70895,0.904 -1.70895,1.237 -3,1 -0.3064,-2.885 0.02693,-5.552 1,-8 z"
       id="path32" />
  </g>
  <g
     id="g33">
    <path
       style="opacity:1"
       fill="#bd6e1f"
       d="m 44.5,101.5 c 0,5.667 0,11.333 0,17 -0.904,0.709 -1.2373,1.709 -1,3 -0.9345,-1.068 -1.2678,-2.401 -1,-4 0.6667,-5.333 1.3333,-10.667 2,-16 z"
       id="path33" />
  </g>
  <g
     id="g34">
    <path
       style="opacity:1"
       fill="#ab5f16"
       d="m 181.5,99.5 c -0.991,6.479 -1.324,13.146 -1,20 -1.319,-6.844 -1.319,-13.844 0,-21 0.607,0.1236 0.94,0.4569 1,1 z"
       id="path34" />
  </g>
  <g
     id="g35">
    <path
       style="opacity:1"
       fill="#a75e15"
       d="m 38.5,99.5 c 0.06,-0.5431 0.3933,-0.8764 1,-1 1.3333,7.333 1.3333,14.667 0,22 -0.6067,-0.124 -0.94,-0.457 -1,-1 1.3333,-6.667 1.3333,-13.333 0,-20 z"
       id="path35" />
  </g>
  <g
     id="g36">
    <path
       style="opacity:1"
       fill="#d27e27"
       d="m 157.5,59.5 c -1.333,2.6667 -1.333,5.3333 0,8 0,28.6667 0,57.333 0,86 -0.667,-26 -1.333,-52 -2,-78 -0.329,-5.7055 0.005,-11.3722 1,-17 0.607,0.1236 0.94,0.4569 1,1 z"
       id="path36" />
  </g>
  <g
     id="g37">
    <path
       style="opacity:1"
       fill="#f49735"
       d="m 113.5,112.5 c 9.948,5.354 10.614,11.687 2,19 -1.956,-5.912 -2.623,-12.245 -2,-19 z"
       id="path37" />
  </g>
  <g
     id="g38">
    <path
       style="opacity:1"
       fill="#713701"
       d="m 14.5,116.5 c 1.1171,10.802 3.9505,21.135 8.5,31 -1.8197,-7.608 -3.8197,-15.274 -6,-23 -0.7958,-2.539 -0.6291,-4.872 0.5,-7 5.5424,30.576 20.8757,55.076 46,73.5 5.8636,3.898 12.197,6.732 19,8.5 5.7109,2.172 11.7109,3.672 18,4.5 1.851,1.684 3.518,3.517 5,5.5 -1.545,0.952 -3.212,1.285 -5,1 -42.4489,-6.938 -71.2823,-30.605 -86.5,-71 -1.8399,-6.39 -3.3399,-12.724 -4.5,-19 -0.30756,-2.424 0.02577,-4.757 1,-7 1.761,0.535 3.0943,1.535 4,3 z"
       id="path38" />
  </g>
  <g
     id="g39">
    <path
       style="opacity:1"
       fill="#773c03"
       d="m 214.5,117.5 c -4.926,41.043 -25.926,70.543 -63,88.5 -11.562,4.724 -23.562,7.557 -36,8.5 -1.699,0.16 -3.366,-0.006 -5,-0.5 2.517,-2.251 5.517,-3.084 9,-2.5 42.65,-6.484 71.817,-29.818 87.5,-70 1.95,-6.586 3.45,-13.253 4.5,-20 -0.165,-3.35 0.002,-6.683 0.5,-10 0.414,-0.457 0.914,-0.791 1.5,-1 0.974,2.243 1.308,4.576 1,7 z"
       id="path39" />
  </g>
  <g
     id="g40">
    <path
       style="opacity:1"
       fill="#eb9031"
       d="m 157.5,59.5 c 18.938,19.8065 24.772,43.14 17.5,70 -3.672,11.365 -9.839,21.032 -18.5,29 -1,-27.659 -1.333,-55.325 -1,-83 0.667,26 1.333,52 2,78 -0.065,0.438 0.101,0.772 0.5,1 5.126,-6.47 9.459,-13.47 13,-21 9.535,-26.316 5.202,-49.9823 -13,-71 -0.494,1.6341 -0.66,3.3008 -0.5,5 -1.333,-2.6667 -1.333,-5.3333 0,-8 z"
       id="path40" />
  </g>
  <g
     id="g41">
    <path
       style="opacity:1"
       fill="#814305"
       d="m 203.5,116.5 c -0.712,8.847 -2.378,17.514 -5,26 0.009,1.808 -0.491,3.475 -1.5,5 -0.496,-1.535 -0.33,-3.035 0.5,-4.5 -0.183,-1.684 -0.85,-1.85 -2,-0.5 2.859,-8.119 5.026,-16.452 6.5,-25 0.383,-0.556 0.883,-0.889 1.5,-1 z"
       id="path41" />
  </g>
  <g
     id="g42">
    <path
       style="opacity:1"
       fill="#bb6e1e"
       d="m 113.5,112.5 c -0.623,6.755 0.044,13.088 2,19 -0.709,0.904 -1.709,1.237 -3,1 -0.324,-6.854 0.009,-13.521 1,-20 z"
       id="path42" />
  </g>
  <g
     id="g43">
    <path
       style="opacity:1"
       fill="#c37221"
       d="m 205.5,115.5 c -0.698,7.798 -2.198,15.465 -4.5,23 -0.2,1.82 -1.034,3.153 -2.5,4 2.622,-8.486 4.288,-17.153 5,-26 0.667,-0.333 1.333,-0.667 2,-1 z"
       id="path43" />
  </g>
  <g
     id="g44">
    <path
       style="opacity:1"
       fill="#7c4004"
       d="m 98.5,18.5 c -9.874,2.1796 -19.374,5.5129 -28.5,10 1.7684,5.5295 4.6017,10.5295 8.5,15 -0.3333,1 -1,1.6667 -2,2 -2.5818,-5.4957 -5.9151,-10.4957 -10,-15 -15.0039,9.1709 -27.1706,21.1709 -36.5,36 -0.7494,1.135 -0.5827,2.135 0.5,3 5.1587,2.4121 10.1587,5.0788 15,8 4.8238,-7.9623 10.8238,-14.9623 18,-21 1.3198,17.2814 1.9864,34.7814 2,52.5 -0.0136,17.719 -0.6802,35.219 -2,52.5 -2.2966,-1.794 -4.4633,-3.794 -6.5,-6 -3.6667,-5.333 -7.3333,-10.667 -11,-16 -4.1451,2.651 -8.3117,5.151 -12.5,7.5 7.0833,12.762 16.0833,24.095 27,34 1.6161,0.615 2.9495,1.615 4,3 1.4437,0.781 2.777,0.614 4,-0.5 2.0836,-3.836 4.417,-7.503 7,-11 -0.3627,-0.683 -0.6961,-1.35 -1,-2 1.6216,0.622 2.9549,1.622 4,3 -0.9959,-0.086 -1.8292,0.248 -2.5,1 -2.4209,3.84 -4.5875,7.84 -6.5,12 2.7846,2.9 6.1179,5.066 10,6.5 5.6094,2.319 11.2761,4.486 17,6.5 1.3333,0.667 1.3333,1.333 0,2 -3.292,-1.255 -6.6254,-2.255 -10,-3 -32.3603,-13.186 -53.1936,-36.519 -62.5,-70 2.1394,5.612 4.8061,10.946 8,16 4.8994,-1.864 9.3994,-4.364 13.5,-7.5 -0.9103,-2.899 -1.9103,-5.733 -3,-8.5 0.9345,-1.068 1.2678,-2.401 1,-4 3.7002,13.386 10.5335,25.053 20.5,35 0.8332,-33.672 0.6666,-67.3383 -0.5,-101 -10.3976,10.4681 -17.3976,22.8015 -21,37 0.2373,-1.291 -0.096,-2.291 -1,-3 1.2318,-4.1954 2.5651,-8.3621 4,-12.5 -5.2806,-3.2238 -10.7806,-6.0572 -16.5,-8.5 -2.3716,1.7105 -4.0382,4.0438 -5,7 -0.7388,3.0465 -1.5721,6.0465 -2.5,9 -1.4238,2.0145 -2.0905,4.3478 -2,7 -0.267,2.4653 -0.9336,4.7986 -2,7 -0.6471,-0.774 -0.9805,-1.7739 -1,-3 1.1624,-4.9806 2.1624,-9.9806 3,-15 C 24.2616,70.6468 31.095,58.9801 40,48.5 55.7169,30.5606 75.2169,20.5606 98.5,18.5 Z"
       id="path44" />
  </g>
  <g
     id="g45">
    <path
       style="opacity:1"
       fill="#bf6d1f"
       d="m 21.5,87.5 c 0.0905,2.6522 -0.5762,4.9855 -2,7 -0.0905,-2.6522 0.5762,-4.9855 2,-7 z"
       id="path45" />
  </g>
  <g
     id="g46">
    <path
       style="opacity:1"
       fill="#c57321"
       d="m 14.5,116.5 c 1.291,-0.237 2.291,0.096 3,1 -1.1291,2.128 -1.2958,4.461 -0.5,7 2.1803,7.726 4.1803,15.392 6,23 -4.5495,-9.865 -7.3829,-20.198 -8.5,-31 z"
       id="path46" />
  </g>
  <g
     id="g47">
    <path
       style="opacity:1"
       fill="#f69936"
       d="m 63.5,161.5 c 0.6667,1.333 1.6667,2.333 3,3 0.3333,1 1,1.667 2,2 1.7459,1.752 3.7459,3.085 6,4 0.3039,0.65 0.6373,1.317 1,2 -2.583,3.497 -4.9164,7.164 -7,11 -1.223,1.114 -2.5563,1.281 -4,0.5 -1.0505,-1.385 -2.3839,-2.385 -4,-3 -10.9167,-9.905 -19.9167,-21.238 -27,-34 4.1883,-2.349 8.3549,-4.849 12.5,-7.5 3.6667,5.333 7.3333,10.667 11,16 2.0367,2.206 4.2034,4.206 6.5,6 z"
       id="path47" />
  </g>
  <g
     id="g48">
    <path
       style="opacity:1"
       fill="#b56b1b"
       d="m 113.5,137.5 c 0,2.667 0,5.333 0,8 -2.559,0.302 -4.893,-0.032 -7,-1 2,0 4,0 6,0 -0.302,-2.559 0.032,-4.893 1,-7 z"
       id="path48" />
  </g>
  <g
     id="g49">
    <path
       style="opacity:1"
       fill="#f79936"
       d="m 145.5,171.5 c 2.639,-1.973 4.973,-4.306 7,-7 1.73,-0.526 3.064,-1.526 4,-3 7.142,-6.148 12.808,-13.481 17,-22 4.394,2.526 8.727,5.026 13,7.5 -8.016,15.501 -19.182,28.334 -33.5,38.5 -3.309,-4.287 -5.809,-8.953 -7.5,-14 z"
       id="path49" />
  </g>
  <g
     id="g50">
    <path
       style="opacity:1"
       fill="#d9822a"
       d="m 9.5,120.5 c 1.1601,6.276 2.6601,12.61 4.5,19 15.2177,40.395 44.0511,64.062 86.5,71 0,0.333 0,0.667 0,1 -43.5793,-6.558 -73.0793,-30.558 -88.5,-72 -1.4921,-5.963 -2.65879,-11.963 -3.5,-18 0.66667,0 1,-0.333 1,-1 z"
       id="path50" />
  </g>
  <g
     id="g51">
    <path
       style="opacity:1"
       fill="#703601"
       d="m 210.5,119.5 c -9.432,51.766 -40.099,82.099 -92,91 -1.478,0.262 -2.811,-0.071 -4,-1 1.482,-1.983 3.149,-3.816 5,-5.5 36.501,-6.665 61.835,-27.165 76,-61.5 1.15,-1.35 1.817,-1.184 2,0.5 -0.83,1.465 -0.996,2.965 -0.5,4.5 1.009,-1.525 1.509,-3.192 1.5,-5 1.466,-0.847 2.3,-2.18 2.5,-4 2.302,-7.535 3.802,-15.202 4.5,-23 1.315,-0.976 2.648,-1.976 4,-3 0.974,2.243 1.308,4.576 1,7 z"
       id="path51" />
  </g>
  <g
     id="g52">
    <path
       style="opacity:1"
       fill="#a96016"
       d="m 33.5,168.5 c -3.6347,-2.107 -5.8014,-5.107 -6.5,-9 2.41,2.897 4.5767,5.897 6.5,9 z"
       id="path52" />
  </g>
  <g
     id="g53">
    <path
       style="opacity:1"
       fill="#a05812"
       d="m 186.5,168.5 c 2.568,-4.117 5.402,-8.117 8.5,-12 -1.561,4.749 -4.394,8.749 -8.5,12 z"
       id="path53" />
  </g>
  <g
     id="g54">
    <path
       style="opacity:1"
       fill="#db832a"
       d="m 210.5,119.5 c -0.172,0.992 0.162,1.658 1,2 -1.05,6.747 -2.55,13.414 -4.5,20 -15.683,40.182 -44.85,63.516 -87.5,70 0,-0.667 -0.333,-1 -1,-1 51.901,-8.901 82.568,-39.234 92,-91 z"
       id="path54" />
  </g>
  <g
     id="g55">
    <path
       style="opacity:1"
       fill="#763b03"
       d="m 151.5,54.5 c 0.998,36.4962 1.332,73.163 1,110 -2.027,2.694 -4.361,5.027 -7,7 -0.838,0.342 -1.172,1.008 -1,2 -0.617,-0.111 -1.117,-0.444 -1.5,-1 -0.903,1.201 -2.069,2.035 -3.5,2.5 -10.538,9.372 -20.538,19.206 -30,29.5 -10.0481,-10.715 -20.3814,-21.048 -31,-31 -1.0451,-1.378 -2.3784,-2.378 -4,-3 -2.2541,-0.915 -4.2541,-2.248 -6,-4 0,-0.667 0.3333,-1 1,-1 3.8088,2.05 7.8088,3.716 12,5 11.1115,6.264 20.611,14.597 28.5,25 6.833,-8.167 14.333,-15.667 22.5,-22.5 6.268,-2.644 12.435,-5.477 18.5,-8.5 0.5,-36.665 0.667,-73.3318 0.5,-110 z"
       id="path55" />
  </g>
  <g
     id="g56">
    <path
       style="opacity:1"
       fill="#f19434"
       d="m 117.5,34.5 c -2.066,3.461 -3.566,7.1277 -4.5,11 2.347,-2.6943 4.18,-5.6943 5.5,-9 0.283,-0.7891 0.783,-1.4558 1.5,-2 6.896,5.8634 14.063,11.3634 21.5,16.5 3.399,1.077 6.733,2.2437 10,3.5 0.167,36.6682 0,73.335 -0.5,110 -6.065,3.023 -12.232,5.856 -18.5,8.5 -8.167,6.833 -15.667,14.333 -22.5,22.5 -7.889,-10.403 -17.3885,-18.736 -28.5,-25 0.3417,-0.838 1.0084,-1.172 2,-1 22.559,6.993 44.225,4.993 65,-6 1,-35.994 1.333,-71.9938 1,-108 -11.18,-4.7249 -22.846,-7.3915 -35,-8 -2.107,-0.9682 -4.441,-1.3016 -7,-1 -1.148,-4.2868 -2.815,-8.2868 -5,-12 1.449,-3.9724 3.949,-7.3057 7.5,-10 3.551,2.6943 6.051,6.0276 7.5,10 z"
       id="path56" />
  </g>
  <g
     id="g57">
    <path
       style="opacity:1"
       fill="#924f0b"
       d="m 117.5,34.5 c -0.172,0.9916 0.162,1.6583 1,2 -1.32,3.3057 -3.153,6.3057 -5.5,9 0.934,-3.8723 2.434,-7.539 4.5,-11 z"
       id="path57" />
  </g>
  <g
     id="g58">
    <path
       style="opacity:1"
       fill="#f39635"
       d="m 198.5,87.5 c -0.09,2.6522 0.576,4.9855 2,7 -0.036,2.961 0.964,5.2943 3,7 0.667,0.333 1.333,0.667 2,1 3.979,4.369 5.646,3.369 5,-3 0,-0.6667 0.333,-1 1,-1 -0.62,3.802 0.214,7.135 2.5,10 0.497,-2.646 0.664,-5.313 0.5,-8 1.333,5.667 1.333,11.333 0,17 0.308,-2.424 -0.026,-4.757 -1,-7 -0.586,0.209 -1.086,0.543 -1.5,1 -0.498,3.317 -0.665,6.65 -0.5,10 -0.838,-0.342 -1.172,-1.008 -1,-2 0.308,-2.424 -0.026,-4.757 -1,-7 -1.352,1.024 -2.685,2.024 -4,3 -0.667,0.333 -1.333,0.667 -2,1 -0.617,0.111 -1.117,0.444 -1.5,1 -1.474,8.548 -3.641,16.881 -6.5,25 -14.165,34.335 -39.499,54.835 -76,61.5 -1.851,1.684 -3.518,3.517 -5,5.5 1.189,0.929 2.522,1.262 4,1 0.667,0 1,0.333 1,1 -3.483,-0.584 -6.483,0.249 -9,2.5 1.634,0.494 3.301,0.66 5,0.5 -4,1.333 -8,1.333 -12,0 2.027,0.162 4.027,-0.005 6,-0.5 -2.798,-1.396 -5.798,-2.23 -9,-2.5 0,-0.333 0,-0.667 0,-1 1.788,0.285 3.455,-0.048 5,-1 -1.482,-1.983 -3.149,-3.816 -5,-5.5 -6.2891,-0.828 -12.2891,-2.328 -18,-4.5 1.599,0.268 2.9324,-0.066 4,-1 3.3746,0.745 6.708,1.745 10,3 1.3333,-0.667 1.3333,-1.333 0,-2 -5.7239,-2.014 -11.3906,-4.181 -17,-6.5 -3.8821,-1.434 -7.2154,-3.6 -10,-6.5 1.9125,-4.16 4.0791,-8.16 6.5,-12 0.6708,-0.752 1.5041,-1.086 2.5,-1 10.6186,9.952 20.9519,20.285 31,31 9.462,-10.294 19.462,-20.128 30,-29.5 1.431,-0.465 2.597,-1.299 3.5,-2.5 0.383,0.556 0.883,0.889 1.5,1 2.14,4.603 3.974,9.27 5.5,14 -9.346,4.89 -18.846,9.39 -28.5,13.5 6.959,-0.762 13.626,-2.762 20,-6 27.143,-13.527 44.976,-34.694 53.5,-63.5 -2.01,4.696 -4.51,9.029 -7.5,13 -4.121,-2.144 -8.288,-4.144 -12.5,-6 0.241,-5.382 2.074,-10.216 5.5,-14.5 8.661,-4.328 16.994,-9.162 25,-14.5 -7.648,-6.122 -15.981,-11.2891 -25,-15.5 -2.773,-4.3155 -4.773,-8.9821 -6,-14 4.63,-2.6616 9.297,-5.3283 14,-8 1.333,-0.6667 2.667,-0.6667 4,0 2.381,5.0279 4.381,10.1946 6,15.5 z"
       id="path58" />
  </g>
  <g
     id="g59">
    <path
       style="opacity:1"
       fill="#b4671a"
       d="m 186.5,168.5 c -3.333,5.333 -7.667,9.667 -13,13 4,-4.667 8.333,-9 13,-13 z"
       id="path59" />
  </g>
  <g
     id="g60">
    <path
       style="opacity:1"
       fill="#a95e15"
       d="m 33.5,168.5 c 7.2451,7.747 15.2451,14.581 24,20.5 -9.8945,-4.378 -17.8945,-11.211 -24,-20.5 z"
       id="path60" />
  </g>
  <g
     id="g61">
    <path
       style="opacity:1"
       fill="#a55c14"
       d="m 173.5,181.5 c -1.879,2.615 -4.212,4.781 -7,6.5 -1.259,0.982 -2.592,1.315 -4,1 3.378,-3.015 7.044,-5.515 11,-7.5 z"
       id="path61" />
  </g>
  <g
     id="g62">
    <path
       style="opacity:1"
       fill="#773c03"
       d="m 8.5,121.5 c 0.84121,6.037 2.0079,12.037 3.5,18 15.4207,41.442 44.9207,65.442 88.5,72 3.202,0.27 6.202,1.104 9,2.5 -1.973,0.495 -3.973,0.662 -6,0.5 C 65.8495,210.423 37.3495,192.09 18,159.5 9.62437,144.252 5.62437,127.919 6,110.5 c 2.07542,3.334 2.90875,7.001 2.5,11 z"
       id="path62" />
  </g>
</svg>
