<?xml version="1.0" encoding="UTF-8" standalone="no"?>
<svg
   version="1.1"
   width="550"
   height="110"
   style="clip-rule:evenodd;fill-rule:evenodd;image-rendering:optimizeQuality;shape-rendering:geometricPrecision;text-rendering:geometricPrecision"
   id="svg29"
   sodipodi:docname="primary-logo-light-2.svg"
   inkscape:version="1.4.2 (f4327f4, 2025-05-13)"
   xml:space="preserve"
   xmlns:inkscape="http://www.inkscape.org/namespaces/inkscape"
   xmlns:sodipodi="http://sodipodi.sourceforge.net/DTD/sodipodi-0.dtd"
   xmlns="http://www.w3.org/2000/svg"
   xmlns:svg="http://www.w3.org/2000/svg"><defs
     id="defs29"><rect
       x="88.5"
       y="1"
       width="459.5"
       height="114"
       id="rect1" /><inkscape:path-effect
       effect="spiro"
       id="path-effect66"
       is_visible="true"
       lpeversion="1" /><inkscape:path-effect
       effect="spiro"
       id="path-effect65"
       is_visible="true"
       lpeversion="1" /><inkscape:path-effect
       effect="spiro"
       id="path-effect59"
       is_visible="true"
       lpeversion="1" /><inkscape:path-effect
       effect="spiro"
       id="path-effect58"
       is_visible="true"
       lpeversion="1" /><symbol
       id="g64"><g
         id="g2"><path
           style="opacity:1"
           fill="#6f3501"
           d="m 38.5,5.5 c -1.5174,0.01056 -2.6841,0.67723 -3.5,2 -6.1523,11.1502 -5.9856,22.1502 0.5,33 -0.467219,1.067096 -0.433046,1.08117 -2,3 -5.485431,3.653418 -11.710712,5.759048 -17.799751,7.795778 C 13.536149,52.210078 11.3359,53.081 9.5,54.5 8.81654,54.1373 8.14987,53.8039 7.5,53.5 5.62313,52.3409 5.12313,50.6742 6,48.5 c 2.66667,-3.3333 5.3333,-6.6667 8,-10 4.7436,-10.4864 9.7436,-20.8198 15,-31 2.6019,-3.71183 6.1019,-4.87849 10.5,-3.5 -0.556,0.38258 -0.8893,0.88258 -1,1.5 z"
           id="path2"
           sodipodi:nodetypes="cccccccccccc" /></g><g
         id="g4"><path
           style="opacity:1"
           fill="#6e3501"
           d="m 38.5,5.5 c 3.3621,-0.43048 6.1954,0.56952 8.5,3 3.8527,7.881 7.5194,15.881 11,24 3.2623,6.1929 7.2623,11.8595 12,17 0.6342,3.0547 0.4675,6.0547 -0.5,9 -4.8655,-5.7447 -11.1988,-8.4114 -19,-8 -2.5098,0.4267 -4.8432,1.0933 -7,2 -9.9254,4.0448 -20.0921,7.3781 -30.5,10 -3.83255,-0.3324 -6.33255,-2.3324 -7.5,-6 6.358,-1.2805 12.6913,-3.1138 19,-5.5 3.5689,-1.9417 6.9022,-4.1084 10,-6.5 5.5987,-3.5415 8.932,-8.5415 10,-15 0.662,-1.8035 0.9954,-3.8035 1,-6 0.1575,-3.3136 -1.075591,-6.139311 -2,-9 -0.8938,-3.4566 -2.5605,-6.45659 -5,-9 z"
           id="path4"
           sodipodi:nodetypes="ccccccccccccccc" /></g><g
         id="g5"
         style="fill:#6e3501;fill-opacity:1"><path
           style="opacity:1;fill:#6e3501;fill-opacity:1"
           fill="#c0701f"
           d="m 43.5,14.5 c 1.4908,2.6864 2.440695,5.6864 2.283195,9 -0.0046,2.1965 -0.621195,4.1965 -1.283195,6 0.462868,-5.0365 0.129468,-10.0365 -1,-15 z"
           id="path5"
           sodipodi:nodetypes="cccc" /></g><g
         id="g8"><path
           style="opacity:1"
           fill="#713702"
           d="m 54.5,52.5 c 5.3236,0.6509 9.6569,2.9842 13,7 -0.0774,1.2498 -0.744,2.0831 -2,2.5 -8.5319,-0.0752 -16.5319,-2.2419 -24,-6.5 1.0769,-1.2051 2.4102,-1.8718 4,-2 2.8915,-0.9025 5.8915,-1.2359 9,-1 z"
           id="path8" /></g></symbol></defs><sodipodi:namedview
     id="namedview29"
     pagecolor="#ffffff"
     bordercolor="#000000"
     borderopacity="0.25"
     inkscape:showpageshadow="2"
     inkscape:pageopacity="0.0"
     inkscape:pagecheckerboard="false"
     inkscape:deskcolor="#d1d1d1"
     inkscape:zoom="0.70710678"
     inkscape:cx="-2.1213203"
     inkscape:cy="-16.263456"
     inkscape:window-width="1920"
     inkscape:window-height="1057"
     inkscape:window-x="-8"
     inkscape:window-y="-8"
     inkscape:window-maximized="1"
     inkscape:current-layer="svg29"
     inkscape:export-bgcolor="#ffffff00" /><g
     id="g20" /><g
     inkscape:groupmode="layer"
     id="layer1"
     inkscape:label="Text" /><path
     d="M 114.75,85.951351 H 96.140625 v -67.5 h 48.468745 v 8.625 H 114.75 v 20.859375 h 23.0625 v 8.578125 H 114.75 Z m 54.46875,-67.21875 q 0,1.78125 -0.70313,3.375 -0.65625,1.59375 -1.82812,2.765625 -1.17188,1.171875 -2.76563,1.875 -1.59375,0.65625 -3.375,0.65625 -1.78125,0 -3.375,-0.65625 -1.54687,-0.703125 -2.71875,-1.875 -1.17187,-1.171875 -1.875,-2.765625 -0.65625,-1.59375 -0.65625,-3.375 0,-1.78125 0.65625,-3.328125 0.70313,-1.59375 1.875,-2.765625 1.17188,-1.171875 2.71875,-1.828125 1.59375,-0.703125 3.375,-0.703125 1.78125,0 3.375,0.703125 1.59375,0.65625 2.76563,1.828125 1.17187,1.171875 1.82812,2.765625 0.70313,1.546875 0.70313,3.328125 z m -0.70313,67.21875 H 152.625 v -54.09375 h 15.89062 z m 68.625,-31.03125 q 0,5.484375 -1.35937,11.4375 -1.3125,5.953125 -3.70313,11.671875 -2.39062,5.71875 -5.71875,10.734375 -3.32812,5.0625 -7.3125,8.71875 l -5.95312,-3.234375 q 1.26562,-2.34375 2.39062,-5.25 1.125,-2.90625 2.01563,-6.140625 0.9375,-3.28125 1.64062,-6.75 0.75,-3.46875 1.21875,-6.84375 0.51563,-3.421875 0.75,-6.609375 0.28125,-3.234375 0.28125,-6 0,-1.828125 -0.14062,-3.890625 -0.14063,-2.109375 -0.60938,-4.171875 -0.42187,-2.109375 -1.17187,-4.03125 -0.75,-1.921875 -2.01563,-3.375 -1.21875,-1.453125 -3,-2.34375 -1.73437,-0.890625 -4.125,-0.890625 -2.34375,0 -4.17187,1.078125 -1.82813,1.03125 -3.23438,2.765625 -1.40625,1.6875 -2.4375,3.890625 -0.98437,2.203125 -1.64062,4.546875 -0.60938,2.296875 -0.89063,4.546875 -0.28125,2.25 -0.28125,4.03125 V 85.951351 H 181.78125 V 31.810726 h 6.09375 l 7.26562,12.609375 q 1.3125,-3.140625 3.28125,-5.71875 1.96875,-2.578125 4.45313,-4.40625 2.48437,-1.828125 5.48437,-2.8125 3.04688,-0.984375 6.5625,-0.984375 5.625,0 9.79688,1.828125 4.17187,1.828125 6.9375,5.109375 2.76562,3.234375 4.125,7.734375 1.35937,4.453125 1.35937,9.75 z m 57.04688,13.734375 q 0,3.5625 -1.03125,6.328125 -1.03125,2.765625 -2.8125,4.828125 -1.78125,2.015625 -4.21875,3.421875 -2.4375,1.359375 -5.25,2.203125 -2.76563,0.84375 -5.8125,1.21875 -3.04688,0.375 -6.04688,0.375 -4.03125,0 -7.125,-0.515625 -3.09375,-0.515625 -5.90625,-1.640625 -2.8125,-1.171875 -5.625,-3 -2.76562,-1.828125 -6.1875,-4.453125 l 9.23438,-7.546875 q 1.26562,2.390625 3.32812,4.359375 2.10938,1.921875 4.35938,3.328125 2.25,1.40625 4.35937,2.15625 2.10938,0.75 3.42188,0.75 1.07812,0 2.4375,-0.04687 1.35937,-0.09375 2.76562,-0.28125 1.40625,-0.234375 2.76563,-0.65625 1.35937,-0.421875 2.39062,-1.125 1.07813,-0.75 1.6875,-1.828125 0.65625,-1.125 0.65625,-2.671875 0,-1.59375 -0.84375,-2.765625 -0.79687,-1.21875 -2.10937,-2.109375 -1.3125,-0.890625 -3,-1.5 -1.6875,-0.609375 -3.42188,-1.078125 -1.6875,-0.46875 -3.28125,-0.796875 -1.59375,-0.375 -2.76562,-0.703125 -2.15625,-0.609375 -4.54688,-1.21875 -2.39062,-0.65625 -4.73437,-1.453125 -2.34375,-0.84375 -4.5,-1.96875 -2.10938,-1.125 -3.75,-2.671875 -1.59375,-1.59375 -2.57813,-3.703125 -0.9375,-2.15625 -0.9375,-5.015625 0,-5.25 2.0625,-8.765625 2.10938,-3.5625 5.53125,-5.671875 3.42188,-2.15625 7.78125,-3.046875 4.35938,-0.890625 8.85938,-0.890625 3.09375,0 6.51562,0.65625 3.42188,0.609375 6.65625,1.875 3.23438,1.21875 6.04688,3 2.8125,1.78125 4.6875,4.078125 l -9.23438,7.59375 q -1.03125,-2.8125 -2.71875,-4.828125 -1.64062,-2.015625 -3.60937,-3.28125 -1.92188,-1.3125 -3.98438,-1.921875 -2.01562,-0.609375 -3.75,-0.609375 -1.6875,0 -3.79687,0.140625 -2.10938,0.140625 -3.98438,0.796875 -1.82812,0.65625 -3.14062,2.015625 -1.26563,1.3125 -1.26563,3.65625 0,1.6875 0.75,2.90625 0.79688,1.171875 2.0625,2.0625 1.26563,0.84375 2.85938,1.453125 1.64062,0.5625 3.32812,1.03125 1.6875,0.421875 3.28125,0.75 1.59375,0.328125 2.85938,0.703125 2.15625,0.609375 4.54687,1.265625 2.4375,0.609375 4.78125,1.453125 2.34375,0.796875 4.5,1.921875 2.20313,1.078125 3.84375,2.671875 1.64063,1.59375 2.625,3.75 0.98438,2.109375 0.98438,5.015625 z m 26.625,-49.921875 q 0,1.78125 -0.70313,3.375 -0.65625,1.59375 -1.82812,2.765625 -1.17188,1.171875 -2.76563,1.875 -1.59375,0.65625 -3.375,0.65625 -1.78125,0 -3.375,-0.65625 -1.54687,-0.703125 -2.71875,-1.875 -1.17187,-1.171875 -1.875,-2.765625 -0.65625,-1.59375 -0.65625,-3.375 0,-1.78125 0.65625,-3.328125 0.70313,-1.59375 1.875,-2.765625 1.17188,-1.171875 2.71875,-1.828125 1.59375,-0.703125 3.375,-0.703125 1.78125,0 3.375,0.703125 1.59375,0.65625 2.76563,1.828125 1.17187,1.171875 1.82812,2.765625 0.70313,1.546875 0.70313,3.328125 z m -0.70313,67.21875 h -15.89062 v -54.09375 h 15.89062 z m 67.78125,-6.515625 q 0,6.46875 -1.92187,12.1875 -1.92188,5.71875 -5.57813,9.984374 -3.65625,4.3125 -9,6.79688 -5.29687,2.53125 -12.09375,2.53125 -3.75,0 -7.59375,-0.84375 -3.79687,-0.84375 -7.21875,-2.625 -3.375,-1.73438 -6.09375,-4.45313 -2.67187,-2.67187 -4.21875,-6.328124 l 6.84375,-2.578125 q 0.89063,2.296875 2.29688,4.21875 1.45312,1.921879 3.32812,3.281249 1.875,1.40625 4.125,2.15625 2.25,0.79688 4.73438,0.79688 4.6875,0 7.82812,-1.92188 3.1875,-1.92187 5.10938,-5.015624 1.92187,-3.09375 2.76562,-7.03125 0.84375,-3.890625 0.84375,-7.921875 v -3.1875 q -2.8125,3.84375 -6.79687,5.71875 -3.9375,1.828125 -8.67188,1.828125 -6.1875,0 -11.0625,-2.203125 -4.875,-2.203125 -8.25,-6 -3.375,-3.84375 -5.15625,-9 -1.78125,-5.15625 -1.78125,-11.0625 0,-5.90625 1.78125,-11.0625 1.78125,-5.15625 5.15625,-8.953125 3.375,-3.84375 8.25,-6.046875 4.875,-2.203125 11.0625,-2.203125 3.14063,0 5.95313,0.9375 2.85937,0.9375 5.20312,2.671875 2.39063,1.6875 4.17188,4.125 1.82812,2.390625 2.85937,5.34375 l 7.03125,-11.765625 h 6.09375 z m -15.9375,-20.671875 q 0,-2.109375 -0.23437,-4.453125 -0.1875,-2.34375 -0.70313,-4.640625 -0.51562,-2.296875 -1.45312,-4.359375 -0.89063,-2.109375 -2.34375,-3.703125 -1.40625,-1.640625 -3.42188,-2.578125 -2.01562,-0.9375 -4.6875,-0.9375 -2.67187,0 -4.64062,0.984375 -1.96875,0.9375 -3.375,2.578125 -1.40625,1.59375 -2.34375,3.703125 -0.89063,2.109375 -1.40625,4.40625 -0.51563,2.296875 -0.75,4.640625 -0.1875,2.296875 -0.1875,4.359375 0,2.0625 0.1875,4.40625 0.23437,2.34375 0.75,4.640625 0.51562,2.296875 1.40625,4.40625 0.9375,2.109375 2.34375,3.75 1.40625,1.59375 3.375,2.578125 1.96875,0.9375 4.64062,0.9375 2.4375,0 4.3125,-0.984375 1.92188,-1.03125 3.32813,-2.71875 1.45312,-1.6875 2.4375,-3.84375 0.98437,-2.15625 1.59375,-4.453125 0.60937,-2.296875 0.89062,-4.546875 0.28125,-2.296875 0.28125,-4.171875 z m 84.51563,-3.84375 q 0,5.484375 -1.35938,11.4375 -1.3125,5.953125 -3.70312,11.671875 -2.39063,5.71875 -5.71875,10.734375 -3.32813,5.0625 -7.3125,8.71875 l -5.95313,-3.234375 q 1.26563,-2.34375 2.39063,-5.25 1.125,-2.90625 2.01562,-6.140625 0.9375,-3.28125 1.64063,-6.75 0.75,-3.46875 1.21875,-6.84375 0.51562,-3.421875 0.75,-6.609375 0.28125,-3.234375 0.28125,-6 0,-1.828125 -0.14063,-3.890625 -0.14062,-2.109375 -0.60937,-4.171875 -0.42188,-2.109375 -1.17188,-4.03125 -0.75,-1.921875 -2.01562,-3.375 -1.21875,-1.453125 -3,-2.34375 -1.73438,-0.890625 -4.125,-0.890625 -2.34375,0 -4.17188,1.078125 -1.82812,1.03125 -3.23437,2.765625 -1.40625,1.6875 -2.4375,3.890625 -0.98438,2.203125 -1.64063,4.546875 -0.60937,2.296875 -0.89062,4.546875 Q 417,57.029476 417,58.810726 v 27.140625 h -15.89063 v -74.0625 h 15.84375 v 27.890625 q 3.04688,-4.453125 7.45313,-6.84375 4.45312,-2.4375 9.84375,-2.4375 5.625,0 9.79687,1.828125 4.17188,1.828125 6.9375,5.109375 2.76563,3.234375 4.125,7.734375 1.35938,4.453125 1.35938,9.75 z M 486.75,85.951351 H 470.85937 V 38.091976 h -9.84375 v -6.28125 h 9.84375 V 11.888851 H 486.75 v 19.921875 h 16.40625 v 6.28125 H 486.75 Z"
     id="text1"
     style="font-size:96px;font-family:Aclonica;-inkscape-font-specification:Aclonica;white-space:pre;fill:#f89a35"
     transform="matrix(1.0590681,0,0,1.0182373,9.1704011,-6.8411901)"
     aria-label="Finsight" /><g
     style="clip-rule:evenodd;fill-rule:evenodd;image-rendering:optimizeQuality;shape-rendering:geometricPrecision;text-rendering:geometricPrecision;opacity:1;fill:#f89a35;fill-opacity:1"
     id="g63"
     transform="matrix(1.248443,0,0,1.2678435,2.4487713,6.3098057)"><g
       id="g3"
       transform="translate(4.8143228,75.850468)"
       style="fill:#f89a35;fill-opacity:1"><path
         style="opacity:1;fill:#f89a35;fill-opacity:1"
         fill="#f69936"
         d="m 38.5,5.5 c 2.4395,2.54341 -1.5174,0.01056 0,0 z"
         id="path3"
         sodipodi:nodetypes="cc" /></g><g
       id="g9"
       transform="translate(-7.4303669,43.657619)"
       style="fill:#f89a35;fill-opacity:1" /><g
       id="use64"
       style="fill:#f89a35;fill-opacity:1"
       transform="matrix(1.1047633,0,0,1.0849902,-3.9745436,-3.638714)"><g
         id="g68"><path
           style="opacity:1"
           fill="#6f3501"
           d="m 38.5,5.5 c -1.5174,0.01056 -2.6841,0.67723 -3.5,2 -6.1523,11.1502 -5.9856,22.1502 0.5,33 -0.467219,1.067096 -0.433046,1.08117 -2,3 -5.485431,3.653418 -11.710712,5.759048 -17.799751,7.795778 C 13.536149,52.210078 11.3359,53.081 9.5,54.5 8.81654,54.1373 8.14987,53.8039 7.5,53.5 5.62313,52.3409 5.12313,50.6742 6,48.5 c 2.66667,-3.3333 5.3333,-6.6667 8,-10 4.7436,-10.4864 9.7436,-20.8198 15,-31 2.6019,-3.71183 6.1019,-4.87849 10.5,-3.5 -0.556,0.38258 -0.8893,0.88258 -1,1.5 z"
           id="path68"
           sodipodi:nodetypes="cccccccccccc" /></g><g
         id="g69"><path
           style="opacity:1"
           fill="#6e3501"
           d="m 38.5,5.5 c 3.3621,-0.43048 6.1954,0.56952 8.5,3 3.8527,7.881 7.5194,15.881 11,24 3.2623,6.1929 7.2623,11.8595 12,17 0.6342,3.0547 0.4675,6.0547 -0.5,9 -4.8655,-5.7447 -11.1988,-8.4114 -19,-8 -2.5098,0.4267 -4.8432,1.0933 -7,2 -9.9254,4.0448 -20.0921,7.3781 -30.5,10 -3.83255,-0.3324 -6.33255,-2.3324 -7.5,-6 6.358,-1.2805 12.6913,-3.1138 19,-5.5 3.5689,-1.9417 6.9022,-4.1084 10,-6.5 5.5987,-3.5415 8.932,-8.5415 10,-15 0.662,-1.8035 0.9954,-3.8035 1,-6 0.1575,-3.3136 -1.075591,-6.139311 -2,-9 -0.8938,-3.4566 -2.5605,-6.45659 -5,-9 z"
           id="path69"
           sodipodi:nodetypes="ccccccccccccccc" /></g><g
         id="g70"
         style="fill:#6e3501;fill-opacity:1"><path
           style="opacity:1;fill:#6e3501;fill-opacity:1"
           fill="#c0701f"
           d="m 43.5,14.5 c 1.4908,2.6864 2.440695,5.6864 2.283195,9 -0.0046,2.1965 -0.621195,4.1965 -1.283195,6 0.462868,-5.0365 0.129468,-10.0365 -1,-15 z"
           id="path70"
           sodipodi:nodetypes="cccc" /></g><g
         id="g71"><path
           style="opacity:1"
           fill="#713702"
           d="m 54.5,52.5 c 5.3236,0.6509 9.6569,2.9842 13,7 -0.0774,1.2498 -0.744,2.0831 -2,2.5 -8.5319,-0.0752 -16.5319,-2.2419 -24,-6.5 1.0769,-1.2051 2.4102,-1.8718 4,-2 2.8915,-0.9025 5.8915,-1.2359 9,-1 z"
           id="path71" /></g></g></g><path
     style="opacity:1;fill:#f89a35;fill-opacity:1;stroke-width:0.0625"
     d="M 14.504639,87.527712 C 10.363523,86.901431 7.5529836,84.869162 5.8463329,81.266994 5.576469,80.6974 5.125,79.549237 5.125,79.432519 c 0,-0.01445 0.043982,-0.02627 0.097737,-0.02627 0.053755,0 0.8342241,-0.156925 1.734375,-0.348725 C 14.617502,77.425287 22.213976,75.218519 30,72.363581 c 1.035872,-0.379825 1.506167,-0.594731 2.455667,-1.122115 3.950169,-2.194067 8.116271,-4.898149 11.731833,-7.614754 0.464062,-0.34868 1.307812,-0.947757 1.875,-1.331282 1.860554,-1.258083 3.269131,-2.423873 4.824856,-3.993228 1.128421,-1.138308 1.692567,-1.78588 2.550095,-2.927202 2.63725,-3.510034 4.314976,-7.358088 5.272795,-12.09375 0.12167,-0.601563 0.306951,-1.345119 0.411736,-1.652349 0.241942,-0.709376 0.240489,-0.855027 -0.0019,-0.191401 l -0.182632,0.5 0.03164,-0.5 C 59.085917,39.591051 59.122601,38.828394 59.158471,37.5 59.324765,31.341572 58.26459,23.330399 56.719062,19.066719 55.479784,15.647892 53.762102,12.762535 51.335015,10.022608 50.573871,9.1633562 50.504044,9.2441509 52.0625,9.1808675 c 3.679437,-0.1494091 6.884023,1.0648735 9.628545,3.6484505 l 0.576494,0.542688 0.591518,1.220247 c 5.241893,10.813535 9.132693,19.26423 13.611612,29.563997 1.006606,2.314805 1.470781,3.238207 2.764743,5.5 3.829307,6.693459 8.429913,13.091513 13.385682,18.615415 1.455706,1.622594 1.3652,1.498763 1.474225,2.01705 0.222812,1.059204 0.350687,2.352172 0.385756,3.900404 0.04796,2.117418 -0.1004,3.715956 -0.518125,5.582412 -0.171431,0.765988 -0.568863,2.198969 -0.625613,2.255719 -0.01831,0.01831 -0.204375,-0.16315 -0.413481,-0.403231 -0.661231,-0.759188 -2.864037,-2.9157 -3.611356,-3.535457 -3.028788,-2.511812 -6.005413,-4.1844 -9.5625,-5.37325 -3.507925,-1.172415 -6.917919,-1.67074 -11,-1.607502 l -1.78125,0.0276 -1.276725,0.263277 c -2.277628,0.469674 -4.464345,1.073143 -6.254525,1.726062 -0.498438,0.181793 -2.171875,0.835662 -3.71875,1.45305 C 43.523217,79.445262 31.616644,83.379469 19,86.710506 c -1.742451,0.460044 -3.669112,0.949581 -3.700313,0.9402 -0.01014,-0.0031 -0.367912,-0.05839 -0.795048,-0.122994 z"
     id="path65" /><path
     style="opacity:1;fill:#f89a35;fill-opacity:1;stroke-width:0.0625"
     d="M 9.1032732,75.872144 C 7.3322179,74.987706 6.7287834,74.550975 6.0847559,73.6875 5.1330419,72.4115 4.9713108,70.805612 5.607459,68.948256 5.7719562,68.467972 5.8764308,68.332561 11.309388,61.557904 l 5.534362,-6.901105 0.556926,-1.23465 C 22.339169,42.473988 29.62845,27.401374 35.997157,14.96875 c 1.233438,-2.407846 1.536129,-2.949133 1.974694,-3.53125 2.183082,-2.8976512 4.883479,-4.530674 8.123976,-4.9128469 0.841727,-0.09927 2.483263,-0.03787 3.435423,0.1284987 0.701382,0.1225511 2.216077,0.4795917 2.272047,0.5355624 0.01381,0.013811 -0.140186,0.1882469 -0.342218,0.3876353 -0.380405,0.3754288 -0.71174,0.9216136 -0.830813,1.3695439 l -0.06869,0.2583933 -0.421413,0.041272 c -1.856836,0.1818541 -3.227696,0.9894923 -4.225874,2.4896633 -0.726967,1.092562 -2.283742,4.311548 -3.205383,6.627854 -1.613932,4.0562 -2.569586,7.958968 -3.02548,12.355674 -0.105976,1.022043 -0.147417,4.953955 -0.06465,6.133982 0.465173,6.632125 2.520189,13.116869 6.185572,19.518996 0.313859,0.548201 0.570653,1.021769 0.570653,1.052375 0,0.03061 -0.100608,0.285203 -0.223573,0.565772 -0.288369,0.657971 -0.833627,1.472392 -1.743305,2.603875 -0.666151,0.828578 -0.780483,0.93998 -1.333985,1.299807 -3.123245,2.030397 -7.311945,4.1567 -11.699137,5.938818 -2.696546,1.095362 -5.279944,2.037869 -9.65625,3.522912 -4.702738,1.595813 -8.395689,3.293594 -10.582147,4.864994 -0.285806,0.205406 -0.538931,0.371556 -0.5625,0.369219 -0.02357,-0.0023 -0.6854426,-0.32515 -1.4708298,-0.717356 z"
     id="path66" /><path
     style="opacity:1;fill:#f89a35;fill-opacity:1;stroke-width:0.125"
     d="M 85.0625,86.84997 C 84.58125,86.82876 83.258367,86.726381 82.122761,86.622464 72.935195,85.781725 64.239681,83.119395 55.882725,78.588478 l -1.054774,-0.57187 0.740874,-0.67329 c 0.893406,-0.811909 2.441515,-1.593305 3.556175,-1.794953 0.446875,-0.08084 1.54375,-0.334143 2.4375,-0.562893 2.904468,-0.743379 4.443872,-0.946238 7.697109,-1.014303 2.371035,-0.04961 3.214002,-0.02062 4.3125,0.1483 4.949201,0.761058 9.225045,2.59318 12.990391,5.566149 1.48788,1.174771 3.9375,3.708013 3.9375,4.071913 0,1.027676 -1.011589,2.41799 -2.125,2.920571 -0.571278,0.257869 -0.934104,0.276694 -3.3125,0.171868 z"
     id="path67" /></svg>
